<svg xmlns="http://www.w3.org/2000/svg" width="365" height="365" viewBox="0 0 365 365" version="1.1">
	<path d="M 160 1.025 C 80.893 11.991, 19.929 68.745, 3.256 146.942 C 0.795 158.488, 0.579 161.354, 0.579 182.500 C 0.579 203.631, 0.796 206.518, 3.249 218.021 C 16.645 280.843, 57.606 329.591, 116.753 353.103 C 126.981 357.168, 148.264 362.547, 159.500 363.906 C 172.514 365.480, 196.536 365.254, 208.735 363.442 C 237.771 359.131, 264.794 348.222, 289.519 330.829 C 301.059 322.712, 322.712 301.059, 330.829 289.519 C 348.017 265.085, 358.462 239.408, 363.635 208.877 C 365.547 197.593, 366.701 165, 365.189 165 C 364.693 165, 363.995 161.861, 363.639 158.025 C 362.817 149.176, 357.118 126.854, 353.103 116.753 C 329.669 57.804, 280.623 16.486, 218.533 3.389 C 208.530 1.279, 203.126 0.789, 186.500 0.487 C 175.500 0.287, 163.575 0.529, 160 1.025 M 168 106.452 C 126.752 112.358, 91.437 130.005, 82.047 149.403 C 78.896 155.912, 79.242 163.653, 82.910 168.717 C 85.840 172.762, 102.190 185.717, 110.191 190.332 C 123.502 198.012, 181.651 207.680, 183.623 202.541 C 184.475 200.321, 182.333 194.860, 179.048 190.874 C 175.485 186.552, 165.177 181.050, 155 178.038 C 140.769 173.827, 134 168.759, 134 162.315 C 134 154.972, 140.357 148.337, 153.500 141.961 C 165.580 136.102, 175.834 133.887, 193.712 133.278 C 210.933 132.690, 218.121 133.496, 240.917 138.569 C 249.396 140.456, 256.596 141.736, 256.917 141.413 C 257.238 141.091, 257.443 138.430, 257.373 135.500 C 257.058 122.310, 244.919 112.433, 222.943 107.488 C 212.783 105.201, 180.930 104.601, 168 106.452 M 176.413 154.365 C 174.333 159.787, 180.947 169.534, 190.364 174.922 C 193.269 176.584, 200.314 179.569, 206.020 181.555 C 225.642 188.385, 232 192.993, 232 200.383 C 232 211.543, 215.607 221.807, 188.500 227.619 C 182.689 228.865, 175.713 229.338, 163 229.347 C 142.660 229.363, 134.826 228.203, 106.538 220.983 C 96.109 218.322, 87.222 216.363, 86.788 216.631 C 85.414 217.480, 85.938 227.915, 87.549 231.782 C 92.196 242.937, 107.905 251.928, 131.688 257.044 C 144.223 259.741, 178.233 260.836, 195.154 259.088 C 234.480 255.026, 271.599 241.092, 286.680 224.731 C 292.784 218.109, 295 213.171, 295 206.190 C 295 201.290, 294.517 199.633, 292.126 196.332 C 288.691 191.590, 276.768 181.813, 264.873 173.984 C 257.273 168.981, 254.420 167.794, 240.902 164.005 C 219.636 158.046, 199.373 154.003, 187.273 153.305 C 178.350 152.790, 176.966 152.925, 176.413 154.365 M 0.409 182.500 C 0.408 191.850, 0.558 195.810, 0.743 191.299 C 0.928 186.789, 0.929 179.139, 0.745 174.299 C 0.562 169.460, 0.410 173.150, 0.409 182.500" stroke="none" fill="black" fill-rule="evenodd"/>
</svg>