<svg width="1000" height="1000" viewBox="0 0 1000 1000" fill="none" xmlns="http://www.w3.org/2000/svg">
<rect width="1000" height="1000" fill=""/>
<path d="M952.3 722.5C923.3 656.4 871.4 610.6 787.2 621L767.8 594.7C767.8 594.7 750.8 637.2 642.6 676.9L662.2 714.3C662.2 714.3 619 779.8 696 864.8C795.5 974.5 952.5 976.5 952.5 976.5L952.3 722.5Z" fill="#FFAD00"/>
<path d="M767.8 594.7L787.2 621C794.9 620 802.7 619.5 810.5 619.5C881.2 619.5 926.2 662.6 952.4 722.5L952.6 976.5C952.6 976.5 795.6 974.5 696.1 864.8C619.1 779.8 662.3 714.3 662.3 714.3L642.7 676.9C750.8 637.2 767.8 594.7 767.8 594.7ZM767.1 588.6L765.1 593.6C765 593.8 760.5 604.2 743.3 619.2C727.3 633.1 696.6 654 641.6 674.2L638.4 675.4L640 678.4L658.8 714.3C656 719.1 648.3 734.6 647.3 757.7C646.7 774.4 649.5 791 655.5 806.6C663.1 827 676 847.3 693.9 866.9C716.8 892.2 744.7 913.8 776.7 931.2C803.4 945.5 831.6 956.8 860.8 964.7C912.3 978.9 952.1 979.5 952.5 979.5H955.5V976.5L955.3 722.5V721.9L955 721.3C941 689 922.4 663.7 899.9 646.2C874.7 626.5 844.6 616.5 810.4 616.5C803.1 616.5 795.8 616.9 788.5 617.8L770.2 592.9L767.1 588.6Z" fill="#1D1D1B"/>
<path d="M731 944.9C681 925.6 650.7 883.4 634.2 851.3C623.4 830.6 615.3 808.5 610 785.8L612.9 785.2C618.1 807.7 626.2 829.5 636.8 850C653.1 881.6 682.8 923.2 732 942.1L731 944.9Z" fill="#1D1D1B"/>
<path d="M767.8 594.7C767.8 594.7 750.8 637.2 642.6 676.9L662.2 714.3C662.2 714.3 780.9 702.3 787.2 621L767.8 594.7Z" fill="#E89D00"/>
<path d="M918 776C928.052 776 936.2 767.851 936.2 757.8C936.2 747.748 928.052 739.6 918 739.6C907.948 739.6 899.8 747.748 899.8 757.8C899.8 767.851 907.948 776 918 776Z" fill="#FFC140"/>
<path d="M894.8 907.9C904.852 907.9 913 899.752 913 889.7C913 879.648 904.852 871.5 894.8 871.5C884.749 871.5 876.6 879.648 876.6 889.7C876.6 899.752 884.749 907.9 894.8 907.9Z" fill="#FFC140"/>
<path d="M724.7 800.7C734.752 800.7 742.9 792.551 742.9 782.5C742.9 772.448 734.752 764.3 724.7 764.3C714.648 764.3 706.5 772.448 706.5 782.5C706.5 792.551 714.648 800.7 724.7 800.7Z" fill="#FFC140"/>
<path d="M450.9 578.1C450.9 578.1 462.2 702.4 647.2 675.2C647.2 675.2 746.7 656.1 767.9 594.7L762.1 583.7C762.1 583.7 804.2 514.1 771.3 478C771.3 478 719.2 485.6 695 562.7C695 562.7 628.3 499.5 546.9 542C546.9 542 503.5 539.4 499.5 564C499.6 563.9 473.8 552.2 450.9 578.1Z" fill="#FFCDB2"/>
<path d="M466 566C476.4 560.5 488.6 559.7 499.6 563.9C500.8 556.4 505.8 551.4 512.1 548.1C526.2 540.7 547 541.9 547 541.9C628.5 499.3 695.1 562.6 695.1 562.6C710.1 514.7 735.9 493.6 753.3 484.5C763.9 479 771.3 477.9 771.3 477.9C804.2 514 762.1 583.6 762.1 583.6L767.9 594.6C758.7 621.3 734.9 639.9 710.7 652.6C679.2 669.1 647.2 675.2 647.2 675.2C462.3 702.5 450.9 578.1 450.9 578.1C455.2 573.2 460.3 569.1 466 566ZM462.9 560C456.4 563.5 450.7 568.1 445.9 573.6C444.7 575 444.1 576.8 444.3 578.6C444.5 580.4 448.7 622.5 488.3 653.7C525 682.5 578.8 692 648.2 681.8H648.5C671.2 677 693.2 669.1 713.8 658.6C745.5 642 765.8 621.3 774.2 596.9C774.8 595.2 774.6 593.2 773.8 591.6L769.8 583.8C778.1 568.8 808.2 508.4 776.3 473.4C774.8 471.8 772.6 471 770.4 471.3C770.1 471.3 761.7 472.6 750.2 478.6C731.9 488.1 707.6 508.4 691.9 551.3C680.3 542.6 667.5 535.5 654 530.2C628.5 520.2 589.1 513.1 545.4 535.3C539.6 535.2 522 535.4 508.9 542.3C502.5 545.6 497.9 550.2 495.2 555.8C484.2 553.3 472.8 554.9 462.9 560Z" fill="black"/>
<path d="M704 606.6L703.8 606.7C702.1 607.5 700.1 606.7 699.4 605C699.2 604.6 695.4 596.8 683.4 593.3C670.4 589.5 645.9 590.5 603.3 617.2C602.2 617.9 600.9 617.9 599.8 617.2C599.2 616.9 542.3 582.7 498.4 567.1C496.7 566.5 495.7 564.6 496.4 562.8C497 561.1 498.9 560.1 500.7 560.8C540.8 575 591.5 604.5 601.5 610.4C636.8 588.6 665.1 580.8 685.6 587C700.4 591.5 705.3 601.8 705.5 602.3C706.2 603.8 705.6 605.8 704 606.6Z" fill="black"/>
<path d="M636.9 580C635.7 580.6 634.2 580.5 633.2 579.6C632.9 579.3 602.6 553.9 545.2 543.1C543.4 542.8 542.2 541 542.5 539.2C542.8 537.4 544.6 536.2 546.4 536.5C605.7 547.7 636.2 573.4 637.5 574.5C638.9 575.7 639.1 577.8 637.9 579.2C637.6 579.5 637.3 579.8 636.9 580Z" fill="black"/>
<path d="M636.4 662.8C636.2 662.9 635.9 663 635.7 663.1C567 684.7 502 641.2 499.2 639.3C497.2 637.8 496.8 635 498.3 633C499.7 631.1 502.2 630.6 504.2 631.9C504.8 632.3 568.5 674.8 633 654.5C635.4 653.8 637.9 655.1 638.6 657.4C639.2 659.6 638.3 661.8 636.4 662.8Z" fill="white"/>
<path d="M267.8 359.2C265.2 353.6 260.1 349.5 254 348.1C247.9 346.6 241.5 347.3 235.9 350.1C224.8 355.5 219.2 363.5 219.2 373.9L225 472.8L210.1 443.9C203.9 431.9 197.7 420.4 191.9 409.9C185.6 398.6 179.7 391.9 173.9 389.2C167.9 386.5 161.5 386.7 154.9 389.9C141.9 396.2 135.5 408.2 136.1 425.5C136.4 448.2 136.3 475.7 135.9 507.4L127 489.2L113.6 459C106.6 442.8 100.7 433 95.3999 429C89.5999 424.6 82.0999 424.6 73.1999 428.9C66.6999 432 61.4999 437.2 58.4999 443.8C55.4999 450 54.6999 457 56.3999 463.7C57.9999 469.7 61.0999 477.5 65.6999 486.9C90.4999 537.9 106.4 568.2 114.3 579.4C122.2 590.6 129.9 598.6 136.9 603.1C144.6 607.9 151.1 609.1 156.3 606.6C164 602.8 169.2 595.6 171.6 584.9C173.9 574.9 175.4 552.6 176.1 516.7C176.4 501.7 176.7 490 177 481.6C195.9 521.5 209.7 545.2 219.1 553.9C230 564 240.3 566.8 249.6 562.3C257.3 558.7 263.3 552.2 266.3 544.2C269.1 536.7 271.2 526.9 272.5 515.1C273.9 503.3 273.9 478.7 272.5 440.1C271.2 402.2 270.5 380 270.5 374.1C270.4 367.6 269.6 362.7 267.8 359.2Z" fill="#D9CFFF"/>
<path d="M150.5 609.3C146.2 609.3 141.4 607.6 136 604.3C128.8 599.8 121 591.6 113 580.2C105.1 568.9 89.1 538.6 64.2 487.5C59.5 478 56.4 470 54.8 464C53 457 53.8 449.6 57 443.1C60.1 436.3 65.6 430.7 72.4 427.5C82 423 90 423 96.3 427.8C101.8 431.9 107.9 441.9 115 458.4L128.5 488.5L134.6 501C135 471.9 135 446.5 134.7 425.5C134.2 407.6 140.8 395.1 154.4 388.5C161.4 385.1 168.2 384.8 174.7 387.7C180.8 390.5 186.9 397.4 193.4 409C199.3 419.5 205.4 431 211.7 443.1L223.3 465.7L218 373.9C218 362.8 223.9 354.4 235.5 348.7C241.4 345.7 248.2 345 254.6 346.6C261.1 348.1 266.6 352.5 269.4 358.5C271.2 362.3 272.1 367.4 272.1 374.1C272.1 380 272.8 402.1 274.1 440C275.5 478.7 275.4 503.3 274.1 515.2C272.8 527.2 270.6 537 267.8 544.6C264.7 553 258.5 559.8 250.4 563.5C240.4 568.3 229.6 565.5 218.2 554.9C209.1 546.5 196.1 524.5 178.4 487.7C178.1 495.3 177.9 505 177.7 516.6C177 552.6 175.5 575 173.2 585.1C170.6 596.2 165.2 603.8 157.1 607.8C154.9 608.8 152.7 609.3 150.5 609.3ZM85.3 427.2C81.3 427.3 77.4 428.4 73.8 430.3C67.6 433.2 62.7 438.2 59.8 444.4C56.9 450.2 56.2 456.9 57.8 463.2C59.3 469.1 62.4 476.8 66.9 486.2C91.7 537.2 107.6 567.4 115.4 578.5C123.2 589.6 130.7 597.5 137.6 601.8C144.8 606.3 150.9 607.5 155.5 605.3C162.8 601.8 167.7 594.8 170 584.6C172.3 574.7 173.7 552.5 174.4 516.8C174.7 501.9 175 490 175.3 481.7L175.6 475.6L178.2 481.1C197 520.9 210.6 544.3 219.9 552.9C230.3 562.5 240 565.3 248.7 561C256.1 557.6 261.8 551.4 264.6 543.7C267.3 536.3 269.4 526.6 270.7 514.9C272.1 503.2 272.1 478.6 270.7 440.1C269.4 402.2 268.7 380 268.7 374.1C268.7 367.8 267.9 363.1 266.3 359.8C263.9 354.6 259.1 350.8 253.5 349.5C247.8 348 241.7 348.7 236.4 351.4C225.9 356.5 220.6 364 220.6 373.8L226.8 479.7L208.7 444.4C202.5 432.4 196.3 421 190.5 410.4C184.4 399.4 178.7 392.9 173.2 390.4C167.7 387.9 161.7 388.1 155.5 391.1C143.1 397.1 137 408.7 137.5 425.3C137.8 448 137.7 475.5 137.3 507.3L137.2 513.6L125.6 489.7L112 459.5C105.1 443.5 99.3 433.9 94.3 430.1C91.9 428.2 88.6 427.1 85.3 427.2Z" fill="#1D1E1B"/>
<path d="M409.8 301.8C408.4 297.5 405.9 294.6 402.3 293C398.7 291.4 394.7 291.7 390.5 293.8C386.6 295.7 383.4 298.8 381.5 302.7C379.4 306.6 379 311.2 380.3 315.5L422.5 454.4C423.9 459.1 426.5 462.2 430.4 463.7C434.3 465.2 438.2 464.9 442.3 462.9C451.8 458.3 454.6 448.9 450.4 435.2L409.8 301.8Z" fill="#D9CFFF"/>
<path d="M435.3 466.2C433.4 466.2 431.6 465.9 429.9 465.2C425.6 463.5 422.7 460.1 421.2 454.9L378.9 316C377.4 311.4 377.9 306.4 380.2 302.1C382.3 297.9 385.7 294.6 389.9 292.5C394.6 290.2 399 290 403 291.7C407 293.4 409.8 296.7 411.3 301.4L451.9 434.8C456.3 449.3 453.4 459.3 443 464.3C440.6 465.5 438 466.1 435.3 466.2ZM397.5 293.6C395.3 293.6 393.1 294.2 391.1 295.2C387.5 297 384.6 299.9 382.8 303.5C380.9 307.1 380.5 311.3 381.7 315.1L424 454C425.3 458.2 427.6 461 431 462.4C434.4 463.8 438 463.5 441.7 461.6C450.6 457.3 453 448.8 449 435.7L408.4 302.3C407.2 298.5 404.9 295.8 401.8 294.4C400.4 293.9 399 293.6 397.5 293.6Z" fill="#1D1E1B"/>
<path d="M508.3 306.2C497.9 306.5 489.1 308.4 482 311.8C468 318.6 458.3 333.4 453.2 355.8C448.2 378 449.2 396.6 456.3 411.2C461.8 422.6 470.5 429.9 482.1 432.9C493.7 435.9 506.1 434.2 519.3 427.8C525.9 424.6 533.5 417.9 542.4 407.4C551.7 396.5 554.7 388.1 551.7 381.8C550.2 378.6 547.5 376.2 544.2 375C540.7 373.7 536.9 373.9 533.6 375.6C532.3 376.2 530 378.1 522.8 387C518.1 393.1 513.8 397.1 509.8 399C503.4 402.1 497.7 403.1 492.8 401.9C488.2 400.8 484.3 397.6 482.4 393.3C479.3 386.9 478.9 376.9 481.2 363.5C484.1 347.2 488.2 342 491.2 340.6C498.2 337.2 503.9 336.1 508.1 337.2C513.1 338.6 517.3 338.5 520.5 336.9C524.7 334.9 527.8 331.3 529.2 326.9C530.8 322.3 530.7 318 528.8 314.3C526.2 308.6 519.3 305.9 508.3 306.2Z" fill="#D9CFFF"/>
<path d="M493.4 435.8C489.5 435.8 485.5 435.3 481.7 434.3C469.7 431.1 460.7 423.5 454.9 411.8C447.7 396.9 446.6 378 451.7 355.4C456.9 332.6 466.8 317.4 481.3 310.4C488.6 306.8 497.7 304.9 508.2 304.6C519.8 304.3 527.2 307.3 530.2 313.5C532.2 317.6 532.4 322.3 530.6 327.3C529.1 332.1 525.6 336 521.1 338.2C517.5 339.9 513 340.1 507.7 338.6C503.9 337.5 498.5 338.6 491.8 341.9C489.6 343 485.5 347.2 482.6 363.8C480.3 376.8 480.6 386.6 483.6 392.7C485.4 396.6 488.8 399.5 493 400.5C497.5 401.6 502.9 400.7 509 397.7C512.7 395.9 516.9 392 521.4 386.1C528.7 377 531.1 375.1 532.7 374.3C536.4 372.4 540.6 372.2 544.5 373.7C548.2 375 551.2 377.7 552.8 381.2C556.2 388.1 553.1 397 543.3 408.4C534.3 419 526.5 425.8 519.7 429.1C510.7 433.6 501.8 435.8 493.4 435.8ZM508.4 307.7C498.3 308 489.6 309.8 482.7 313.2C469.1 319.8 459.7 334.3 454.7 356.2C449.7 378.1 450.7 396.3 457.7 410.6C463 421.6 471.4 428.6 482.5 431.5C493.6 434.4 505.8 432.7 518.7 426.5C525.2 423.4 532.6 416.8 541.3 406.5C550 396.2 553.1 388.2 550.4 382.5C549 379.7 546.6 377.5 543.7 376.5C540.6 375.3 537.2 375.5 534.3 377C532.7 377.8 529.3 381.4 524 387.9C519.2 394.2 514.7 398.4 510.5 400.4C503.7 403.7 497.7 404.7 492.5 403.4C487.4 402.2 483.2 398.7 481.1 394C477.8 387.3 477.4 377 479.8 363.3C482.2 349.6 485.8 341.6 490.6 339.3C498 335.7 504 334.6 508.6 335.8C513.2 337 517 337 519.9 335.6C523.7 333.8 526.6 330.5 527.9 326.4C529.4 322.2 529.2 318.3 527.6 314.9C525.2 309.9 518.7 307.5 508.4 307.7Z" fill="#1D1E1B"/>
<path d="M616.7 263C607 258.7 596.7 259.1 586 264.3C567.8 273.1 556.2 287.5 551.3 306.9C546.4 326.3 548 344.1 555.7 359.9C561.3 371.4 569.6 379.2 580.5 383.3C591.4 387.4 602.8 386.6 614.3 381C630.7 373 641.2 359.4 645.5 340.5C649.8 321.7 647.9 303.8 639.8 287.1C634 275.4 626.3 267.3 616.7 263ZM623.5 324.4C621.2 334.3 615.7 341.4 607.2 345.6C601.2 348.5 595.3 348.9 589.6 346.8C583.9 344.7 579.6 340.6 576.7 334.6C572.7 326.3 571.9 317 574.4 306.9C576.7 297.1 583.3 288.9 592.5 284.6C598.1 281.9 603.5 281.7 608.5 283.9C613.5 286.1 617.5 290.4 620.5 296.5C624.7 305.1 625.8 315 623.5 324.4Z" fill="#D9CFFF"/>
<path d="M594.4 387.5C589.5 387.5 584.6 386.6 580 384.9C568.8 380.7 560.2 372.6 554.4 360.8C546.5 344.6 545 326.4 549.9 306.7C554.9 286.8 566.8 272.1 585.4 263.1C596.5 257.7 607.3 257.2 617.4 261.8C627.3 266.2 635.3 274.6 641.2 286.7C649.5 303.7 651.4 322 647.1 341.1C642.7 360.5 631.9 374.5 615.1 382.7C608.6 385.7 601.6 387.4 594.4 387.5ZM603.1 261.6C597.4 261.7 591.7 263.1 586.6 265.7C568.9 274.3 557.5 288.3 552.7 307.3C547.9 326.3 549.4 343.8 557 359.3C562.4 370.4 570.5 378 580.9 381.9C591.3 385.8 602.4 385 613.5 379.6C629.5 371.8 639.7 358.5 643.9 340.1C648.1 321.7 646.2 304.1 638.3 287.7C632.7 276.3 625.3 268.4 616 264.3C612 262.6 607.6 261.6 603.1 261.6ZM596.9 349.6C594.2 349.6 591.6 349.1 589.1 348.2C583.1 345.9 578.4 341.6 575.3 335.2C571.1 326.6 570.3 316.9 572.9 306.5C575.3 296.2 582.2 287.7 591.8 283.2C597.8 280.3 603.6 280.1 609.1 282.5C614.4 284.9 618.7 289.4 621.9 295.8C626.3 304.8 627.4 315 625 324.7C622.6 335.1 616.9 342.5 607.9 346.9C604.5 348.6 600.7 349.5 596.9 349.6ZM601.4 283.9C598.5 283.9 595.7 284.7 593.1 286C584.3 290 578 297.9 575.8 307.3C573.4 317 574.1 326 578 334C580.7 339.6 584.8 343.5 590.1 345.5C595.4 347.5 600.9 347.1 606.6 344.4C614.7 340.4 619.9 333.7 622.1 324.2C624.3 315.2 623.3 305.7 619.2 297.3C616.4 291.5 612.6 287.5 607.9 285.4C605.9 284.4 603.7 283.9 601.4 283.9Z" fill="#1D1E1B"/>
<path d="M739.8 187.8C729.5 192.7 721.1 200.7 715.8 210.8C708.9 205.9 700.6 205.7 691.1 210.3C683.4 214 676.8 222.5 671.3 235.6C671.1 234.1 670.7 232.6 670.1 231.2C668.4 227.8 665.4 225.2 661.8 224C658 222.6 653.8 222.8 650.2 224.6C645.5 226.9 642.7 231.9 641.7 239.5C640.8 246.7 642.2 255.2 645.8 264.8C648 270.7 650.5 278.4 653.4 287.7L664.8 324.7C665.8 328.5 667.2 332.1 668.8 335.7C674.2 346.8 681.7 346 687.1 343.4C691.1 341.6 694.5 338.5 696.8 334.7C699 331.2 699.4 326.9 698 323L685 276.6C688.8 263.2 693.4 252.5 698.5 244.8C699.4 246.9 700.2 249.1 700.8 251.3C702.8 257.7 707 268.8 713.5 284C718.1 294.8 721.3 302.7 723 307.6L726.8 318.7L726.9 318.9C728.4 322.1 731.3 324.6 734.7 325.6C738.4 326.8 742.4 326.4 745.8 324.6C749.2 322.9 752 320.2 753.9 316.9C755.8 313.5 756.6 309.6 756.2 305.7C755.8 301.9 751.5 290.4 742.9 270.6C736.4 256.2 732.2 245.9 730.5 240.1C732.9 236 735.6 232.1 738.5 228.3C744.2 220.7 745.9 219.2 746.4 218.9C746.8 219 749.5 220.2 755.7 232.9L777.6 283.4C780.8 289.9 783.8 293.8 787 295.3C790.2 296.8 794.2 296.5 798.8 294.3C802.7 292.4 805.8 289.2 807.8 285.3C810.1 281 810.2 276.2 808.1 271C806.2 266.3 803 259.1 798.6 249.6C790.4 231.9 786 222.4 785.5 221.3C782.7 214.5 780.2 209 778.2 204.9C768.9 185.7 756 179.9 739.8 187.8Z" fill="#D9CFFF"/>
<path d="M680.8 346.4C676.4 346.4 671.5 344.1 667.6 336.2C665.9 332.6 664.6 328.8 663.5 325L652.1 288C649.3 278.7 646.7 271.1 644.5 265.2C640.8 255.4 639.4 246.7 640.3 239.2C641.3 231.1 644.4 225.7 649.6 223.2C653.6 221.2 658.2 220.9 662.3 222.5C666.3 223.8 669.6 226.7 671.5 230.5C671.6 230.7 671.7 230.8 671.7 231C677 219.9 683.3 212.4 690.5 208.9C699.9 204.3 708.2 204.2 715.3 208.6C720.8 198.9 729.1 191.2 739.2 186.4C747.7 182.3 755.4 181.8 762.2 184.8C769 187.8 774.8 194.4 779.6 204.3C781.6 208.4 784.1 214 786.9 220.8C787.4 221.9 791.7 231.4 800 249.1C804.4 258.7 807.6 265.9 809.5 270.6C811.8 276.2 811.7 281.5 809.1 286.2C807 290.4 803.6 293.7 799.4 295.8C794.4 298.2 790.1 298.5 786.4 296.8C782.9 295.1 779.6 291 776.3 284.2L754.3 233.6C750 224.8 747.6 221.9 746.5 220.9C744.1 223.6 741.8 226.4 739.7 229.3C737 232.8 734.4 236.5 732.1 240.4C733.9 246.3 738 256.3 744.2 270.1C752.9 290.4 757.2 301.6 757.6 305.7C758.1 309.9 757.2 314.1 755.1 317.8C753.1 321.4 750.1 324.3 746.4 326.1C742.6 328.1 738.2 328.5 734.2 327.2C730.4 326 727.2 323.3 725.5 319.7L725.4 319.4L721.6 308.3C719.9 303.4 716.7 295.5 712.1 284.8C705.6 269.5 701.4 258.4 699.4 251.9C699 250.6 698.6 249.3 698.2 248.2C693.8 255.5 689.9 265.1 686.5 276.7L699.5 322.5C701 326.8 700.5 331.5 698.1 335.4C695.7 339.5 692.1 342.7 687.8 344.7C685.7 345.8 683.3 346.4 680.8 346.4ZM656.8 224.5C654.8 224.5 652.8 225 650.9 225.9C646.7 227.9 644.2 232.5 643.3 239.6C642.4 246.7 643.8 254.8 647.3 264.2C649.5 270.1 652.1 277.9 654.9 287.2L666.3 324.2C667.3 327.9 668.6 331.5 670.3 334.9C674.2 342.9 679.7 345.3 686.6 341.9C690.4 340.2 693.5 337.3 695.6 333.8C697.5 330.6 697.9 326.8 696.7 323.3L683.4 276.6L683.5 276.2C687.4 262.7 692 251.8 697.2 244L698.7 241.7L699.8 244.2C700.7 246.4 701.5 248.6 702.2 250.9C704.2 257.3 708.4 268.3 714.8 283.5C719.4 294.3 722.7 302.3 724.4 307.2L728.2 318.4C729.6 321.2 732.1 323.4 735.1 324.3C738.4 325.3 742 325 745.1 323.3C748.2 321.8 750.8 319.3 752.5 316.2C754.3 313.1 755 309.4 754.6 305.9C754.2 302.3 749.8 290.6 741.4 271.2C734.9 256.7 730.7 246.4 728.9 240.5L728.7 239.9L729 239.4C731.5 235.2 734.2 231.2 737.2 227.4C740.1 223.5 743.9 218.6 745.5 217.6L746 217.2L746.6 217.4C748.9 218 752.4 223.1 756.8 232.2L778.8 282.8C781.7 288.8 784.7 292.6 787.5 293.9C790.3 295.2 793.8 294.9 798 292.9C801.6 291.1 804.5 288.2 806.4 284.6C808.5 280.7 808.6 276.4 806.6 271.6C804.6 266.8 801.5 259.8 797.1 250.2C788.8 232.3 784.5 223 784 221.9C781.2 215.2 778.7 209.7 776.8 205.6C772.3 196.3 766.9 190.2 760.8 187.5C754.7 184.8 747.9 185.3 740.3 189C730.3 193.8 722.1 201.6 717 211.4L716.2 212.9L714.8 211.9C708.4 207.3 700.6 207.2 691.7 211.5C684.4 215.1 677.9 223.3 672.6 236L670.7 240.4L669.7 235.7C669.5 234.3 669.1 233 668.6 231.6C667.1 228.5 664.4 226.2 661.1 225.1C659.8 224.8 658.3 224.6 656.8 224.5Z" fill="#1D1E1B"/>
<path d="M890.1 201C886.7 202.7 882.8 206.5 878.4 212.6C873.5 219.1 867.1 224.3 859.8 227.7C850.9 232 842.8 233 835.5 230.6L860.3 202.5C872.3 189.2 879.6 179.1 882.6 171.7C885.8 164.5 885.5 156.2 882 149.2C878.2 141.4 871.7 137.1 862.5 136.3C853.7 135.6 843.2 138.2 831.2 144C812.8 153 801.5 167.7 797.5 187.9C793.6 207.9 795.4 225.9 803 241.4C808.5 252.8 817.3 259.9 829.1 262.5C840.7 265.1 854.1 262.8 868.8 255.6C880.3 250.2 890.3 242.2 898.2 232.2C906.2 222.1 908.2 212.9 904.4 204.9C902.8 201.7 898.8 196.8 890.1 201ZM820.5 199.9C827.3 174.4 848.4 147.4 868.4 156.6C888.4 165.8 815.3 219.1 820.5 199.9Z" fill="#D9CFFF"/>
<path d="M838.7 265.1C835.4 265.1 832.1 264.8 828.8 264.1C816.5 261.4 807.4 254 801.6 242.2C793.9 226.4 792 208.1 796 187.8C800.1 167.2 811.7 152 830.5 142.9C842.7 137 853.5 134.3 862.6 135C872.3 135.8 879.3 140.4 883.3 148.7C887 156.1 887.3 164.8 883.9 172.4C880.8 180 873.4 190.2 861.3 203.6L838.1 229.9C844.4 231.3 851.4 230.2 859 226.5C866.2 223.2 872.4 218.1 877.1 211.8C881.7 205.4 885.7 201.5 889.4 199.7C893.7 197.6 897.4 197.3 900.5 198.9C902.8 200.1 904.6 202.1 905.7 204.4C909.9 212.9 907.7 222.7 899.4 233.3C891.3 243.4 881.1 251.5 869.4 257.1C858.4 262.4 848.1 265.1 838.7 265.1ZM859.6 137.8C851.7 137.8 842.4 140.4 831.9 145.5C814 154.2 802.9 168.6 799 188.3C795.1 208 797 225.6 804.4 240.8C809.7 251.7 818.2 258.6 829.5 261.1C840.8 263.6 853.8 261.3 868.2 254.3C879.4 248.9 889.3 241.1 897.1 231.4C904.7 221.8 906.7 213.1 903.1 205.7C902.3 203.9 901 202.5 899.3 201.6C897 200.5 894.2 200.8 890.8 202.4C887.6 204 883.9 207.6 879.6 213.5C874.6 220.2 868 225.6 860.4 229.1C851.2 233.6 842.6 234.6 835 232.1L832.8 231.4L859.1 201.6C871 188.4 878.2 178.5 881.2 171.2C884.2 164.4 884 156.6 880.7 149.9C877.2 142.6 871 138.6 862.4 137.9C861.5 137.9 860.5 137.8 859.6 137.8ZM822.8 205.6C822.2 205.6 821.7 205.5 821.1 205.4C820.1 205.1 817.8 203.8 818.9 199.6C824.2 179.9 836.9 161.9 849.8 155.8C856.4 152.7 862.8 152.5 868.9 155.3C871.3 156.4 875 159.3 872.3 166C869.1 174.3 857.5 185.1 847.8 192.4C844.8 194.8 830.2 205.6 822.8 205.6ZM860.1 156.3C857 156.3 853.9 157.1 851.1 158.4C839 164.1 827 181.3 821.9 200.3C821.6 201.6 821.6 202.3 822.1 202.4C828.4 204.5 863.7 179.9 869.6 164.8C871.4 160.3 869.5 158.7 867.7 157.9C865.3 156.9 862.7 156.3 860.1 156.3Z" fill="#1D1E1B"/>
<path d="M388.7 448.3C385.3 450 381.4 453.8 376.9 459.9C372 466.4 365.6 471.6 358.3 475C349.4 479.3 341.3 480.3 334 477.9L358.8 449.8C370.8 436.5 378.1 426.4 381.1 419C384.3 411.8 384 403.5 380.5 396.5C376.7 388.7 370.2 384.4 361 383.6C352.2 382.9 341.7 385.5 329.7 391.3C311.3 400.2 300 415 296 435.2C292.1 455.1 293.9 473.1 301.5 488.7C307 500.1 315.8 507.2 327.6 509.8C339.2 512.4 352.6 510.1 367.2 502.9C378.7 497.5 388.7 489.5 396.6 479.5C404.6 469.4 406.6 460.2 402.8 452.2C401.4 449 397.4 444 388.7 448.3ZM319.1 447.2C325.9 421.7 347 394.7 367 403.9C387 413.1 314 466.3 319.1 447.2Z" fill="#D9CFFF"/>
<path d="M337.3 512.3C334 512.3 330.7 512 327.4 511.2C315.1 508.5 306 501.1 300.3 489.3C292.6 473.5 290.7 455.2 294.7 434.9C298.8 414.3 310.4 399.1 329.2 390C341.4 384 352.2 381.4 361.3 382.1C371 382.9 378 387.5 382 395.8C385.7 403.2 385.9 411.9 382.6 419.5C379.5 427.1 372.1 437.3 360 450.7L336.8 477C343.1 478.4 350.1 477.3 357.7 473.6C364.9 470.3 371.1 465.2 375.8 458.9C380.4 452.5 384.4 448.6 388.1 446.8C392.4 444.7 396.1 444.4 399.2 446C401.5 447.2 403.3 449.2 404.4 451.5C408.5 460 406.4 469.7 398.1 480.4C390 490.5 379.8 498.6 368.1 504.2C357 509.6 346.7 512.3 337.3 512.3ZM358.2 385.1C350.3 385.1 341 387.7 330.5 392.8C312.6 401.5 301.5 415.9 297.6 435.6C293.7 455.3 295.5 472.9 303 488.1C308.3 499.1 316.8 505.9 328.1 508.4C339.4 510.9 352.4 508.6 366.8 501.6C378.1 496.3 388 488.4 395.7 478.7C403.3 469.1 405.3 460.4 401.7 453C400.9 451.2 399.6 449.8 397.9 448.9C395.6 447.8 392.8 448.1 389.4 449.7C386.2 451.3 382.5 454.9 378.2 460.8C373.2 467.5 366.6 472.9 359 476.4C349.8 480.9 341.2 481.9 333.6 479.4L331.4 478.7L357.7 448.9C369.6 435.7 376.8 425.8 379.8 418.5C382.8 411.7 382.6 403.9 379.3 397.2C375.8 389.9 369.6 385.9 361 385.2C360.1 385.1 359.1 385.1 358.2 385.1ZM321.5 452.8C320.9 452.8 320.4 452.7 319.8 452.6C318.8 452.3 316.5 451 317.6 446.8C322.9 427.1 335.6 409.1 348.5 403C355.1 399.9 361.5 399.7 367.6 402.5C370 403.6 373.7 406.5 371.1 413.2C367.8 421.5 356.3 432.3 346.6 439.6C343.5 442 328.8 452.8 321.5 452.8ZM358.7 403.5C355.6 403.5 352.5 404.3 349.7 405.6C337.5 411.3 325.5 428.6 320.4 447.5C320.1 448.8 320.1 449.5 320.6 449.6C326.9 451.7 362.2 427.1 368.1 412C369.9 407.5 368 405.9 366.2 405.1C364 404.1 361.4 403.5 358.7 403.5Z" fill="#1D1E1B"/>
<path d="M257.5 512.5C257.3 512.5 257.1 512.5 256.9 512.5C254.2 512.2 252.2 509.7 252.5 507C260.3 439.6 246.7 362.2 246.6 361.5C246.2 358.8 248.1 356.2 250.8 355.8C253.4 355.4 255.9 357.1 256.4 359.7C256.5 360.5 270.4 439.2 262.4 508.2C262.2 510.6 260 512.5 257.5 512.5Z" fill="white"/>
<path d="M159 594C158.5 594 158 593.9 157.6 593.8C155 593 153.5 590.2 154.3 587.6C166.9 546.1 159.2 466.3 159.1 465.5C158.8 462.7 160.8 460.3 163.6 460C166.4 459.7 168.8 461.7 169.1 464.5C169.4 467.9 177 547 163.9 590.4C163.2 592.6 161.2 594 159 594Z" fill="white"/>
<path d="M370 427.5C369.5 427.5 369 427.3 368.5 427C367.4 426.2 367.1 424.6 368 423.5C374.5 414.6 376.7 407.1 374.6 401.4C371.9 393.9 362.5 391.4 362.4 391.4C361.1 391.1 360.2 389.7 360.6 388.4C361 387.1 362.3 386.2 363.6 386.6C364.1 386.7 375.6 389.7 379.2 399.7C381.9 407.1 379.5 416.1 372 426.5C371.6 427.1 370.8 427.5 370 427.5Z" fill="white"/>
<path d="M427.5 395C426.4 395 425.4 394.3 425.1 393.2L400.1 307.2C399.7 305.9 400.5 304.5 401.8 304.1C403.1 303.7 404.5 304.5 404.9 305.8L429.9 391.8C430.3 393.1 429.5 394.5 428.2 394.9C428 395 427.7 395 427.5 395Z" fill="white"/>
<path d="M455.5 377C455.4 377 455.2 377 455.1 377C453.8 376.8 452.9 375.5 453.1 374.1C458.2 344.4 467.8 325.1 481.7 316.7C492.6 310.1 502 313 502.4 313.2C503.7 313.6 504.4 315 504 316.4C503.6 317.7 502.2 318.4 500.9 318C500.6 317.9 493.1 315.7 484.2 321.1C475.5 326.3 464 340 458 375C457.8 376.2 456.7 377 455.5 377Z" fill="white"/>
<path d="M642.5 331C641.2 331 640.1 330 640 328.6C637.1 271.4 601.6 267 601.2 267C599.8 266.9 598.8 265.6 599 264.2C599.2 262.8 600.4 261.8 601.8 262C602.2 262 612.2 263.2 622.6 272.1C632 280.2 643.5 296.5 645.1 328.4C645.2 329.8 644.1 330.9 642.7 331H642.5Z" fill="white"/>
<path d="M790.5 252C789.5 252 788.6 251.4 788.2 250.4C770.5 206.8 759.7 198.5 755.9 196.9C755.3 196.6 754.6 196.5 753.9 196.6C752.8 197.4 751.2 197.1 750.4 196C749.6 194.9 749.9 193.3 751 192.5C751.3 192.2 753.3 191 756.5 191.9C766.3 194.6 778.8 214.2 792.8 248.6C793.3 249.9 792.7 251.3 791.4 251.9C791.1 251.9 790.8 252 790.5 252Z" fill="white"/>
<path d="M731.5 263C730.4 263 729.4 262.2 729.1 261.2C720.3 229.1 710.6 220.5 703.9 218.9C696.9 217.2 691.6 223 691.4 223.2C690.5 224.2 688.9 224.3 687.9 223.4C686.9 222.5 686.8 220.9 687.7 219.9C688 219.6 695.1 211.7 705.1 214C716.7 216.7 726.4 232.2 734 259.9C734.4 261.2 733.6 262.6 732.2 263C731.9 263 731.7 263 731.5 263Z" fill="white"/>
<path d="M877.5 172C877.3 172 877.1 172 876.9 171.9C875.6 171.6 874.8 170.2 875.1 168.9C877.2 160.3 876.3 153.8 872.6 149.6C865.7 142 851.1 144 850.9 144C849.5 144.2 848.3 143.2 848.1 141.8C847.9 140.5 848.9 139.2 850.2 139C850.9 138.9 867.6 136.6 876.3 146.2C881.3 151.7 882.5 159.7 880 170.1C879.6 171.2 878.6 172 877.5 172Z" fill="white"/>
<path d="M329 557.2L704.3 386.8C711.3 383.6 719.6 386.7 722.8 393.7C726 400.7 722.9 409 715.9 412.2L340.6 582.6C333.6 585.8 325.3 582.7 322.1 575.7C318.9 568.6 322 560.4 329 557.2Z" fill="#D9CFFF"/>
<path d="M334.8 585.3C326.3 585.3 319.4 578.4 319.3 569.9C319.3 563.8 322.8 558.3 328.4 555.8L703.6 385.4C711.4 381.9 720.5 385.3 724 393.1C727.5 400.9 724.1 410 716.3 413.5L341.2 583.9C339.2 584.8 337 585.3 334.8 585.3ZM710.1 387C708.3 387 706.6 387.4 705 388.1L329.7 558.5C323.4 561.3 320.7 568.7 323.5 575C326.3 581.3 333.7 584 340 581.2L715.2 410.8L715.8 412.2L715.2 410.8C721.5 408 724.3 400.6 721.4 394.3C719.4 389.9 715 387 710.1 387Z" fill="#1D1E1B"/>
<path d="M573 460C570.2 460 568 457.8 568 455C568 453 569.2 451.2 571 450.4L704 393.4C706.5 392.3 709.5 393.5 710.6 396C711.7 398.5 710.5 401.5 708 402.6L575 459.6C574.3 459.9 573.7 460 573 460Z" fill="white"/>
<path d="M141.3 665.7C133.5 665.7 125.8 664.3 118.5 661.5C76.5 645.8 54 592 53.1 589.7C52.7 588.7 53.2 587.5 54.2 587.1C55.2 586.7 56.4 587.2 56.8 588.2C57 588.7 79.5 642.7 119.9 657.7C137.2 664.1 155.3 662.6 174 653.1C175 652.7 176.2 653.2 176.6 654.2C177 655.1 176.6 656.2 175.8 656.7C164.2 662.7 152.6 665.7 141.3 665.7Z" fill="#1D1E1B"/>
<path d="M450 258C449.1 258 448.3 257.4 448 256.5C432.4 190.3 450.2 133.8 468 98C487.2 59.3 510.4 35.8 510.6 35.6C511.3 34.8 512.6 34.7 513.4 35.4C514.2 36.1 514.3 37.4 513.6 38.2C513.5 38.3 513.5 38.4 513.4 38.4C513.2 38.6 490.4 61.7 471.5 99.9C454.1 135 436.6 190.6 452 255.5C452.3 256.6 451.6 257.7 450.5 257.9C450.3 258 450.2 258 450 258Z" fill="#1D1E1B"/>
<path d="M478 246C476.9 246 476.1 245.2 476 244.1C472 169.2 519.9 107.4 520.4 106.7C521.1 105.8 522.3 105.7 523.2 106.4C524.1 107.1 524.2 108.3 523.5 109.2C523 109.8 476 170.5 479.9 243.8C480 244.9 479.1 245.8 478 245.9V246Z" fill="#1D1E1B"/>
<path d="M954.5 957C953.7 957 953 956.3 953 955.5V375.5C953 374.7 953.7 374 954.5 374C955.3 374 956 374.7 956 375.5V955.5C956 956.3 955.3 957 954.5 957Z" fill="#1D1E1B"/>
<path d="M925.5 429C924.7 429 924 428.3 924 427.5V313.5C924 312.7 924.7 312 925.5 312C926.3 312 927 312.7 927 313.5V427.5C927 428.3 926.3 429 925.5 429Z" fill="#1D1E1B"/>
</svg>
